<?xml version="1.0" encoding="utf-8"?>
<!-- Generator: Adobe Illustrator 16.0.0, SVG Export Plug-In . SVG Version: 6.00 Build 0)  -->
<!DOCTYPE svg PUBLIC "-//W3C//DTD SVG 1.1//EN" "http://www.w3.org/Graphics/SVG/1.1/DTD/svg11.dtd">
<svg version="1.1" id="Layer_1" xmlns="http://www.w3.org/2000/svg" xmlns:xlink="http://www.w3.org/1999/xlink" x="0px" y="0px"
	 width="56px" height="56px" viewBox="0 0 56 56" enable-background="new 0 0 56 56" xml:space="preserve">
<title>identity-icon4</title>
<desc>Created with Sketch.</desc>
<path fill="#A0A8B8" d="M46.109,19.052c-0.578-0.199-1.177-0.387-1.794-0.565c0.103-0.414,0.194-0.822,0.277-1.224
	c1.357-6.59,0.47-11.899-2.562-13.648c-2.907-1.676-7.66,0.072-12.462,4.25c-0.462,0.401-0.924,0.826-1.387,1.272
	c-0.308-0.295-0.616-0.58-0.923-0.853c-5.031-4.468-10.074-6.351-13.103-4.598c-2.904,1.682-3.764,6.673-2.542,12.919
	c0.119,0.602,0.256,1.219,0.413,1.845c-0.714,0.203-1.403,0.419-2.062,0.648c-5.898,2.056-9.666,5.28-9.666,8.623
	c0,3.454,4.044,6.916,10.188,9.015c0.485,0.166,0.988,0.324,1.506,0.472c-0.168,0.68-0.314,1.342-0.438,1.989
	c-1.165,6.139-0.255,11.013,2.641,12.682c2.992,1.726,8.012-0.048,12.9-4.32c0.386-0.337,0.774-0.696,1.163-1.072
	c0.503,0.484,1.006,0.944,1.507,1.374c4.734,4.075,9.41,5.72,12.304,4.046c2.988-1.73,3.959-6.966,2.698-13.336
	c-0.096-0.487-0.207-0.982-0.332-1.487c0.351-0.105,0.697-0.214,1.034-0.326c6.388-2.115,10.544-5.536,10.544-9.035
	C56.016,24.368,52.127,21.124,46.109,19.052L46.109,19.052L46.109,19.052z"/>
<path fill="#FFFFFF" d="M44.723,34.501c-0.304,0.101-0.616,0.198-0.935,0.293c-0.705-2.232-1.657-4.606-2.822-7.059
	c1.111-2.395,2.027-4.737,2.712-6.955c0.57,0.165,1.124,0.339,1.656,0.522c5.156,1.774,8.302,4.399,8.302,6.421
	C53.636,29.877,50.238,32.674,44.723,34.501L44.723,34.501L44.723,34.501z M42.436,39.036c0.558,2.815,0.637,5.362,0.269,7.353
	c-0.333,1.79-1,2.981-1.825,3.459c-1.756,1.017-5.511-0.305-9.561-3.791c-0.465-0.397-0.932-0.826-1.4-1.275
	c1.569-1.717,3.138-3.715,4.671-5.93c2.693-0.24,5.236-0.63,7.544-1.164C42.247,38.147,42.349,38.595,42.436,39.036L42.436,39.036
	L42.436,39.036z M19.294,49.673c-1.716,0.605-3.083,0.623-3.909,0.146c-1.758-1.012-2.488-4.927-1.491-10.176
	c0.114-0.6,0.25-1.216,0.406-1.849c2.283,0.505,4.809,0.869,7.508,1.088c1.542,2.17,3.156,4.161,4.783,5.908
	c-0.354,0.343-0.709,0.669-1.061,0.979C23.37,47.658,21.203,48.997,19.294,49.673L19.294,49.673L19.294,49.673z M11.257,34.488
	c-2.717-0.93-4.961-2.136-6.499-3.452c-1.382-1.184-2.08-2.358-2.08-3.313c0-2.029,3.024-4.615,8.069-6.375
	c0.613-0.214,1.252-0.415,1.918-0.604c0.697,2.269,1.611,4.64,2.714,7.036c-1.117,2.434-2.044,4.842-2.749,7.137
	C12.158,34.783,11.699,34.639,11.257,34.488L11.257,34.488L11.257,34.488z M13.951,16.149c-1.047-5.351-0.352-9.388,1.399-10.401
	c1.863-1.079,5.985,0.46,10.329,4.317c0.278,0.246,0.557,0.505,0.837,0.771c-1.619,1.737-3.218,3.718-4.747,5.873
	c-2.62,0.244-5.13,0.634-7.435,1.156C14.189,17.282,14.061,16.709,13.951,16.149L13.951,16.149L13.951,16.149z M37.984,22.083
	c-0.552-0.951-1.117-1.882-1.694-2.785c1.778,0.225,3.481,0.522,5.08,0.888c-0.479,1.539-1.078,3.147-1.783,4.798
	C39.082,24.023,38.547,23.056,37.984,22.083L37.984,22.083L37.984,22.083z M28.184,12.537c1.099,1.19,2.197,2.518,3.279,3.958
	c-1.09-0.051-2.193-0.077-3.307-0.077c-1.102,0-2.196,0.026-3.279,0.076C25.96,15.067,27.068,13.74,28.184,12.537L28.184,12.537
	L28.184,12.537z M18.32,22.101c-0.551,0.955-1.076,1.917-1.573,2.88c-0.693-1.643-1.286-3.259-1.77-4.82
	c1.589-0.355,3.284-0.646,5.051-0.867C19.442,20.206,18.873,21.143,18.32,22.101L18.32,22.101L18.32,22.101z M20.079,36.322
	c-1.825-0.202-3.546-0.479-5.136-0.823c0.492-1.589,1.099-3.24,1.807-4.92c0.499,0.964,1.025,1.926,1.579,2.883l0,0
	C18.894,34.438,19.479,35.393,20.079,36.322L20.079,36.322L20.079,36.322z M28.25,43.077c-1.128-1.217-2.254-2.563-3.353-4.011
	c1.067,0.04,2.154,0.063,3.259,0.063c1.137,0,2.258-0.027,3.364-0.075C30.436,40.528,29.34,41.877,28.25,43.077L28.25,43.077
	L28.25,43.077z M39.609,30.493c0.745,1.698,1.373,3.342,1.871,4.902c-1.614,0.368-3.359,0.665-5.196,0.887
	c0.578-0.917,1.148-1.863,1.71-2.837C38.562,32.462,39.101,31.476,39.609,30.493L39.609,30.493L39.609,30.493z M35.932,32.256
	c-0.871,1.512-1.765,2.952-2.672,4.315c-1.652,0.115-3.362,0.177-5.104,0.177c-1.733,0-3.42-0.054-5.043-0.159
	c-0.944-1.379-1.858-2.823-2.724-4.319l0,0c-0.863-1.49-1.657-2.994-2.377-4.489c0.72-1.497,1.512-3.003,2.371-4.491h-0.001
	c0.861-1.491,1.766-2.931,2.702-4.3c1.657-0.126,3.355-0.19,5.072-0.19l0,0c1.727,0,3.428,0.065,5.083,0.191
	c0.921,1.36,1.821,2.794,2.685,4.286c0.875,1.509,1.677,3.004,2.403,4.471C37.603,29.238,36.802,30.748,35.932,32.256L35.932,32.256
	L35.932,32.256z M40.842,5.678c1.866,1.076,2.592,5.415,1.42,11.105c-0.075,0.362-0.159,0.732-0.251,1.107
	c-2.312-0.533-4.821-0.93-7.449-1.177c-1.531-2.182-3.117-4.162-4.711-5.878c0.43-0.411,0.856-0.806,1.283-1.176
	C35.246,6.08,39.092,4.668,40.842,5.678L40.842,5.678L40.842,5.678z"/>
<path fill="#A0A8B8" d="M28.156,22.795c2.749,0,4.977,2.228,4.977,4.975c0,2.748-2.228,4.977-4.977,4.977
	c-2.747,0-4.974-2.229-4.974-4.977C23.182,25.022,25.409,22.795,28.156,22.795"/>
</svg>
